<svg data-v-0dd9719b="" version="1.0" xmlns="http://www.w3.org/2000/svg" xmlns:xlink="http://www.w3.org/1999/xlink" width="100%" height="100%" viewBox="0 0 340.000000 250.000000" preserveAspectRatio="xMidYMid meet" color-interpolation-filters="sRGB" style="margin: auto;"> <rect data-v-0dd9719b="" x="0" y="0" width="100%" height="100%" fill="#ffffff" fill-opacity="1" class="background"></rect> <!----> <g data-v-0dd9719b="" fill="#0d0821" class="basesvg" transform="translate(80.46500396728516,80.50131225585938)"><g data-gra="path-name" fill-rule="" class="tp-name"><g transform="scale(1)"><g><path d="M29.21-14.79L23.8-3.43 1.95-16.5 1.49-28.65 23.73-42.71 28.42-31.49 12.24-23.04 29.21-14.79ZM65.15-46.4L65.15-46.4 63.3-32.48Q62.34-32.74 61.39-32.84 60.43-32.94 59.47-32.94L59.47-32.94Q57.03-32.94 54.82-32.29 52.61-31.65 50.91-30.33 49.21-29.01 48.2-27.03 47.19-25.05 47.19-22.38L47.19-22.38Q47.19-20.66 47.74-19.41 48.28-18.15 49.27-17.33 50.26-16.5 51.62-16.11 52.97-15.71 54.59-15.71L54.59-15.71Q55.81-15.71 57.13-15.97 58.45-16.24 59.74-16.67 61.02-17.1 62.24-17.66 63.47-18.22 64.49-18.81L64.49-18.81 63.17-3.3Q61.88-2.64 60.38-2.13 58.88-1.62 57.29-1.24 55.71-0.86 54.13-0.66 52.54-0.46 51.09-0.46L51.09-0.46Q46.9-0.46 43.27-2.01 39.64-3.56 36.96-6.27 34.29-8.98 32.76-12.66 31.22-16.34 31.22-20.59L31.22-20.59Q31.22-26.24 32.84-31.24 34.46-36.24 37.59-40 40.73-43.76 45.36-45.94 50-48.12 56.04-48.12L56.04-48.12Q58.32-48.12 60.71-47.76 63.1-47.39 65.15-46.4ZM107.62-23.3L107.62-23.3Q107.62-20.3 106.93-17.51 106.24-14.72 104.93-12.28 103.63-9.83 101.77-7.81 99.9-5.78 97.57-4.32 95.25-2.87 92.51-2.06 89.77-1.25 86.7-1.25L86.7-1.25Q83.73-1.25 81.04-2.01 78.35-2.77 76.01-4.14 73.66-5.51 71.77-7.44 69.87-9.37 68.53-11.73 67.19-14.09 66.45-16.8 65.71-19.5 65.71-22.44L65.71-22.44Q65.71-25.31 66.4-28.07 67.1-30.83 68.4-33.27 69.7-35.71 71.55-37.76 73.4-39.8 75.69-41.29 77.99-42.77 80.66-43.6 83.33-44.42 86.3-44.42L86.3-44.42Q91.09-44.42 95.03-42.94 98.98-41.45 101.77-38.7 104.55-35.94 106.09-32.03 107.62-28.12 107.62-23.3ZM92.97-22.44L92.97-22.44Q92.97-23.86 92.56-25.2 92.15-26.53 91.35-27.57 90.56-28.61 89.39-29.26 88.22-29.9 86.7-29.9L86.7-29.9Q85.15-29.9 83.93-29.34 82.71-28.78 81.83-27.81 80.96-26.83 80.5-25.53 80.03-24.22 80.03-22.77L80.03-22.77Q80.03-21.39 80.43-20 80.83-18.61 81.62-17.49 82.41-16.37 83.58-15.68 84.75-14.98 86.3-14.98L86.3-14.98Q87.85-14.98 89.09-15.59 90.33-16.2 91.19-17.24 92.05-18.28 92.51-19.64 92.97-20.99 92.97-22.44ZM147.33-26.2L147.33-26.2Q147.33-21.58 146.14-17.87 144.95-14.16 142.82-11.27 140.69-8.38 137.76-6.3 134.82-4.22 131.32-2.89 127.82-1.55 123.88-0.91 119.93-0.26 115.78-0.26L115.78-0.26Q114.22-0.26 112.74-0.35 111.25-0.43 109.7-0.59L109.7-0.59 110.63-44.88Q114.26-46.04 118.1-46.52 121.95-47 125.74-47L125.74-47Q130.46-47 134.42-45.58 138.38-44.16 141.25-41.49 144.13-38.81 145.73-34.95 147.33-31.09 147.33-26.2ZM133.8-23.63L133.8-24.09Q133.83-25.87 133.42-27.52 133-29.17 132.06-30.45 131.12-31.72 129.67-32.49 128.22-33.27 126.2-33.33L126.2-33.33 124.88-12.87Q126.86-13.17 128.48-14.17 130.1-15.18 131.27-16.65 132.44-18.12 133.09-19.92 133.73-21.72 133.8-23.63L133.8-23.63ZM150.13-47.59L180.56-47.59Q180.36-44.49 180.2-41.45 180.03-38.42 179.77-35.31L179.77-35.31 165.78-34.59 165.45-30.43 175.28-30.43 174.55-20.2 164.65-19.87 164.32-15.05 172.51-15.05 178.32-15.05Q178.12-11.42 177.9-7.84 177.69-4.26 177.52-0.66L177.52-0.66 149.08 0 150.13-47.59Z" transform="translate(-1.4900000095367432, 48.119998931884766)"></path></g> <!----> <!----> <!----> <!----> <!----> <!----> <g data-gra="path-name-1" fill="#0d0821" transform="translate(0,51.119998931884766)"><g transform="scale(1.00364)"><path d="M24.04-11.9L24.04-11.9Q24.04-8.83 22.98-6.54 21.91-4.25 20.07-2.73 18.22-1.21 15.75-0.45 13.28 0.31 10.44 0.31L10.44 0.31Q9.35 0.31 8.04 0.02 6.73-0.27 5.39-0.7 4.05-1.14 2.81-1.64 1.57-2.15 0.6-2.59L0.6-2.59 1.59-11.81Q3.49-10.67 5.8-10.07 8.12-9.48 10.35-9.48L10.35-9.48Q10.78-9.48 11.38-9.51 11.99-9.55 12.53-9.72 13.08-9.88 13.46-10.22 13.84-10.55 13.84-11.18L13.84-11.18Q13.84-11.6 13.57-11.91 13.3-12.21 12.88-12.4 12.45-12.59 11.92-12.69 11.38-12.79 10.87-12.83 10.35-12.88 9.91-12.88 9.46-12.88 9.19-12.88L9.19-12.88Q7.27-12.88 5.69-13.55 4.11-14.22 2.99-15.42 1.86-16.61 1.23-18.26 0.6-19.9 0.6-21.82L0.6-21.82Q0.6-24.46 1.67-26.55 2.73-28.64 4.51-30.11 6.28-31.57 8.59-32.36 10.89-33.14 13.35-33.14L13.35-33.14Q14.44-33.14 15.61-33.06 16.77-32.98 17.92-32.78 19.07-32.58 20.17-32.27 21.26-31.95 22.25-31.48L22.25-31.48 21.4-22.4Q19.88-22.92 18.21-23.27 16.55-23.61 14.96-23.61L14.96-23.61Q14.67-23.61 14.21-23.6 13.75-23.59 13.25-23.53 12.75-23.48 12.23-23.37 11.72-23.25 11.31-23.06 10.91-22.87 10.67-22.56 10.42-22.25 10.44-21.82L10.44-21.82Q10.46-21.33 10.81-21.03 11.16-20.73 11.71-20.56 12.25-20.39 12.91-20.33 13.57-20.26 14.22-20.25 14.87-20.24 15.43-20.25 15.99-20.26 16.35-20.21L16.35-20.21Q18.13-20.1 19.57-19.45 21-18.8 21.99-17.73 22.99-16.66 23.51-15.17 24.04-13.68 24.04-11.9ZM55.5-16.64L55.5-16.64Q55.5-13.24 54.23-10.15 52.97-7.07 50.44-4.74L50.44-4.74 53.53-1.07 45.35 4.2 43.42-1.07Q42.57-0.89 41.71-0.8 40.85-0.72 39.98-0.72L39.98-0.72Q37.83-0.72 35.87-1.25 33.9-1.79 32.18-2.76 30.45-3.73 29.05-5.12 27.64-6.51 26.62-8.21 25.6-9.91 25.05-11.88 24.51-13.86 24.51-16.01L24.51-16.01Q24.51-18.13 25.03-20.14 25.56-22.14 26.53-23.9 27.5-25.67 28.88-27.13 30.25-28.6 31.95-29.66 33.65-30.72 35.62-31.3 37.59-31.89 39.76-31.89L39.76-31.89Q43.22-31.89 46.12-30.83 49.01-29.78 51.09-27.82 53.17-25.85 54.34-23.02 55.5-20.19 55.5-16.64ZM44.63-16.01L44.63-16.01Q44.63-17.04 44.33-18.01 44.03-18.98 43.45-19.73 42.86-20.48 41.99-20.93 41.12-21.38 39.98-21.38L39.98-21.38Q38.86-21.38 37.97-20.99 37.07-20.59 36.44-19.9 35.8-19.21 35.45-18.27 35.11-17.33 35.11-16.23L35.11-16.23Q35.11-15.2 35.41-14.21 35.71-13.21 36.29-12.42 36.87-11.63 37.74-11.14 38.62-10.64 39.76-10.64L39.76-10.64Q40.85-10.64 41.76-11.08 42.66-11.52 43.3-12.25 43.94-12.99 44.28-13.96 44.63-14.94 44.63-16.01ZM83.83-24.86L83.83-24.86Q83.83-23.21 83.67-21.22 83.52-19.23 83.16-17.11 82.8-14.98 82.23-12.8 81.66-10.62 80.81-8.61 79.96-6.6 78.83-4.84 77.7-3.09 76.24-1.78 74.77-0.47 72.96 0.28 71.15 1.03 68.94 1.03L68.94 1.03Q66.34 1.03 64.43 0.19 62.52-0.65 61.16-2.07 59.79-3.49 58.92-5.38 58.05-7.27 57.56-9.38 57.06-11.49 56.87-13.7 56.68-15.9 56.68-17.93L56.68-17.93Q56.68-21.06 57-24.18 57.31-27.3 57.89-30.41L57.89-30.41 68.36-30.01Q67.75-26.5 67.32-22.95 66.88-19.41 66.88-15.83L66.88-15.83Q66.88-15.45 66.91-14.7 66.95-13.95 67.04-13.02 67.13-12.1 67.29-11.12 67.46-10.15 67.75-9.35 68.04-8.54 68.46-8.03 68.87-7.51 69.43-7.51L69.43-7.51Q70.08-7.51 70.59-8.13 71.11-8.74 71.5-9.77 71.89-10.8 72.18-12.14 72.47-13.48 72.67-14.94 72.87-16.39 73-17.84 73.12-19.3 73.2-20.55 73.27-21.8 73.3-22.76 73.32-23.72 73.32-24.19L73.32-24.19Q73.32-25.94 73.26-27.67 73.21-29.4 73.1-31.13L73.1-31.13 83.56-31.13Q83.83-28.04 83.83-24.86ZM103.57-32.02L112.29-1.92 101.2-0.49 99.86-5.55 94.76-5.55 93.64-0.49 82.24-1.61 91.14-31.39 103.57-32.02ZM95.7-12.39L99.06-12.39 97.36-20.17 95.7-12.39ZM138.1-17.75L138.1-17.75Q138.1-14.62 137.29-12.11 136.49-9.59 135.04-7.64 133.6-5.68 131.61-4.27 129.62-2.86 127.25-1.96 124.88-1.05 122.21-0.61 119.54-0.18 116.72-0.18L116.72-0.18Q115.67-0.18 114.66-0.23 113.66-0.29 112.61-0.4L112.61-0.4 113.23-30.41Q115.69-31.19 118.3-31.52 120.9-31.84 123.47-31.84L123.47-31.84Q126.67-31.84 129.35-30.88 132.04-29.92 133.98-28.11 135.93-26.3 137.01-23.68 138.1-21.06 138.1-17.75ZM128.93-16.01L128.93-16.32Q128.95-17.53 128.67-18.65 128.39-19.77 127.76-20.63 127.12-21.49 126.13-22.01 125.15-22.54 123.79-22.58L123.79-22.58 122.89-8.72Q124.23-8.92 125.33-9.6 126.42-10.29 127.22-11.28 128.01-12.28 128.45-13.49 128.88-14.71 128.93-16.01L128.93-16.01ZM151.09-33.54L158.24-30.41Q154.64-22.61 151.59-14.55 148.54-6.48 145.9 1.74L145.9 1.74 136.96-1.74Q138.59-5.79 140.22-9.83 141.85-13.86 143.56-17.85 145.27-21.85 147.13-25.78 148.99-29.72 151.09-33.54L151.09-33.54ZM179.02-11.9L163.9-2.33 160.68-10.02 171.68-15.74 160.23-21.33 163.86-28.93 178.66-20.17 179.02-11.9Z" transform="translate(-0.6000000238418579, 33.540000915527344)"></path></g></g></g></g> <!----></g><defs v-gra="od"></defs></svg>