<svg width="646" height="403" viewBox="0 0 646 403" fill="none" xmlns="http://www.w3.org/2000/svg">
<path d="M71 124.5H572" stroke="black" stroke-width="1.968"/>
<path fill-rule="evenodd" clip-rule="evenodd" d="M565.449 401.134H77.6126C73.9994 401.134 71.0703 398.207 71.0703 394.597V97.9357C71.0703 94.3257 73.9994 91.3985 77.6126 91.3985H565.449C569.062 91.3985 571.99 94.3257 571.99 97.9357V394.597C571.99 398.207 569.062 401.134 565.449 401.134Z" stroke="black" stroke-width="1.968"/>
<path opacity="0.4" fill-rule="evenodd" clip-rule="evenodd" d="M104.083 108.141C104.083 110.67 102.032 112.721 99.5011 112.721C96.9703 112.721 94.9189 110.67 94.9189 108.141C94.9189 105.612 96.9703 103.562 99.5011 103.562C102.032 103.562 104.083 105.612 104.083 108.141Z" fill="#CACDDE"/>
<path opacity="0.7" fill-rule="evenodd" clip-rule="evenodd" d="M121.891 108.141C121.891 110.67 119.84 112.721 117.309 112.721C114.778 112.721 112.727 110.67 112.727 108.141C112.727 105.612 114.778 103.562 117.309 103.562C119.84 103.562 121.891 105.612 121.891 108.141Z" fill="#CACDDE"/>
<path fill-rule="evenodd" clip-rule="evenodd" d="M139.699 108.141C139.699 110.67 137.647 112.721 135.116 112.721C132.586 112.721 130.534 110.67 130.534 108.141C130.534 105.612 132.586 103.562 135.116 103.562C137.647 103.562 139.699 105.612 139.699 108.141Z" fill="#CACDDE"/>
<path fill-rule="evenodd" clip-rule="evenodd" d="M637.064 234.748H519.338C516.019 234.748 513.328 232.059 513.328 228.742V119.93C513.328 116.613 516.019 113.925 519.338 113.925H637.064C640.383 113.925 643.073 116.613 643.073 119.93V228.742C643.073 232.059 640.383 234.748 637.064 234.748Z" fill="#F7F7F8"/>
<path fill-rule="evenodd" clip-rule="evenodd" d="M637.064 234.748H519.338C516.019 234.748 513.328 232.059 513.328 228.742V119.93C513.328 116.613 516.019 113.925 519.338 113.925H637.064C640.383 113.925 643.073 116.613 643.073 119.93V228.742C643.073 232.059 640.383 234.748 637.064 234.748Z" stroke="black" stroke-width="1.968"/>
<path fill-rule="evenodd" clip-rule="evenodd" d="M547.799 203.318H608.987C612.323 203.318 615.029 200.615 615.029 197.282V147.165C615.029 143.832 612.323 141.129 608.987 141.129H547.799C544.464 141.129 541.76 143.832 541.76 147.165V197.282C541.76 200.615 544.464 203.318 547.799 203.318Z" fill="#CACDDE"/>
<path fill-rule="evenodd" clip-rule="evenodd" d="M595.107 182.563H566.467H561.295V159.902H595.107V165.567V182.563Z" stroke="white" stroke-width="1.647" stroke-linecap="round" stroke-linejoin="round"/>
<path d="M561.295 159.902L578.201 173.217L595.107 159.902" stroke="white" stroke-width="1.647" stroke-linecap="round" stroke-linejoin="round"/>
<path fill-rule="evenodd" clip-rule="evenodd" d="M118.992 325.864H6.71807C3.55227 325.864 0.986328 323.298 0.986328 320.135V222.308C0.986328 219.145 3.55227 216.581 6.71807 216.581H118.992C122.156 216.581 124.722 219.145 124.722 222.308V320.135C124.722 323.298 122.156 325.864 118.992 325.864Z" fill="#F7F7F8"/>
<path fill-rule="evenodd" clip-rule="evenodd" d="M118.992 325.864H6.71807C3.55227 325.864 0.986328 323.298 0.986328 320.135V222.308C0.986328 219.145 3.55227 216.581 6.71807 216.581H118.992C122.156 216.581 124.722 219.145 124.722 222.308V320.135C124.722 323.298 122.156 325.864 118.992 325.864Z" stroke="black" stroke-width="1.968"/>
<path fill-rule="evenodd" clip-rule="evenodd" d="M91.678 304.809H33.4487C29.7703 304.809 26.7891 301.829 26.7891 298.153V241.953C26.7891 238.277 29.7703 235.297 33.4487 235.297H91.678C95.3563 235.297 98.3386 238.277 98.3386 241.953V298.153C98.3386 301.829 95.3563 304.809 91.678 304.809Z" fill="#CACDDE"/>
<path fill-rule="evenodd" clip-rule="evenodd" d="M81.2111 269.52H72.5152C72.4681 266.908 72.128 264.294 71.481 261.683H78.8649C80.199 264.021 81.0286 266.682 81.2111 269.52ZM78.8649 279.723H71.2473C71.9364 277.109 72.3517 274.498 72.4791 271.884H81.2111C81.0296 274.722 80.199 277.384 78.8649 279.723ZM68.0564 288.232C69.0485 286.184 69.8811 284.136 70.5491 282.087H77.2579C74.9307 284.995 71.7318 287.174 68.0564 288.232ZM62.9997 288.942C62.1902 288.942 61.3918 288.889 60.6093 288.786C59.4939 286.553 58.544 284.32 57.7806 282.087H68.2199C67.4555 284.32 66.5056 286.553 65.3912 288.786C64.6087 288.889 63.8103 288.942 62.9997 288.942ZM48.7426 282.087H55.4504C56.1194 284.135 56.952 286.184 57.9441 288.232C54.2687 287.174 51.0698 284.995 48.7426 282.087ZM47.1346 279.723C45.8005 277.385 44.9709 274.722 44.7884 271.884H53.5214C53.6478 274.497 54.0641 277.109 54.7532 279.723H47.1346ZM47.1346 261.683H54.5195C53.8715 264.294 53.5324 266.908 53.4843 269.52H44.7884C44.9709 266.682 45.8015 264.021 47.1346 261.683ZM57.6963 253.247C56.6681 255.27 55.8356 257.295 55.1896 259.318H48.7426C51.0167 256.476 54.1253 254.33 57.6963 253.247ZM62.9997 252.463C63.9728 252.463 64.9267 252.54 65.8576 252.686C67.0974 254.897 68.0684 257.108 68.7917 259.318H57.2088C57.9311 257.108 58.9031 254.897 60.1419 252.686C61.0728 252.54 62.0277 252.463 62.9997 252.463ZM70.3485 271.884C70.171 274.497 69.6965 277.109 68.9592 279.723H57.0413C56.303 277.11 55.8296 274.498 55.651 271.884H70.3485ZM55.5718 269.52C55.5748 266.908 55.8827 264.294 56.5307 261.683H69.4698C70.1168 264.294 70.4257 266.908 70.4277 269.52H55.5718ZM77.2579 259.318H70.8109C70.1639 257.295 69.3314 255.27 68.3042 253.247C71.8752 254.33 74.9839 256.476 77.2579 259.318ZM48.6955 256.407C40.8391 264.258 40.8391 277.146 48.6955 284.998C56.5518 292.849 69.4477 292.849 77.304 284.998C85.1604 277.146 85.1604 264.258 77.304 256.407C69.4477 248.555 56.5518 248.555 48.6955 256.407Z" fill="white"/>
<path fill-rule="evenodd" clip-rule="evenodd" d="M112.3 62.8163H10.587C8.4855 62.8163 6.78223 61.114 6.78223 59.0138C6.78223 56.9136 8.4855 55.2113 10.587 55.2113H112.3C114.401 55.2113 116.105 56.9136 116.105 59.0138C116.105 61.114 114.401 62.8163 112.3 62.8163Z" fill="#3490E5"/>
<mask id="mask0" mask-type="alpha" maskUnits="userSpaceOnUse" x="588" y="303" width="58" height="9">
<path fill-rule="evenodd" clip-rule="evenodd" d="M588.036 303.513H645.013V311.118H588.036V303.513Z" fill="white"/>
</mask>
<g mask="url(#mask0)">
<path fill-rule="evenodd" clip-rule="evenodd" d="M641.209 311.118H591.841C589.739 311.118 588.036 309.416 588.036 307.316C588.036 305.215 589.739 303.513 591.841 303.513H641.209C643.31 303.513 645.014 305.215 645.014 307.316C645.014 309.416 643.31 311.118 641.209 311.118Z" fill="#A4E9FB"/>
</g>
<path fill-rule="evenodd" clip-rule="evenodd" d="M606.633 355.104H600.6C599.015 355.104 597.73 353.82 597.73 352.236V346.576C597.73 344.992 599.015 343.709 600.6 343.709H606.633C608.218 343.709 609.503 344.992 609.503 346.576V352.236C609.503 353.82 608.218 355.104 606.633 355.104Z" fill="#3490E5"/>
<path fill-rule="evenodd" clip-rule="evenodd" d="M496.519 58.8886H396.125C394.456 58.8886 393.103 57.5362 393.103 55.8691V31.3721C393.103 29.705 394.456 28.3536 396.125 28.3536H496.519C498.188 28.3536 499.541 29.705 499.541 31.3721V55.8691C499.541 57.5362 498.188 58.8886 496.519 58.8886Z" fill="#CACDDE"/>
<path d="M407.602 39.2332H479.001" stroke="white" stroke-width="1.18"/>
<path d="M407.602 46.5571H436.683" stroke="white" stroke-width="1.18"/>
<path fill-rule="evenodd" clip-rule="evenodd" d="M404.697 55.4342V67.3348L419.674 55.4342H404.697Z" fill="#CACDDE"/>
<path fill-rule="evenodd" clip-rule="evenodd" d="M249.863 60.7051H201.264C196.544 60.7051 192.718 56.8806 192.718 52.1628V7.00852C192.718 3.43263 195.619 0.533417 199.197 0.533417H249.863C253.441 0.533417 256.342 3.43263 256.342 7.00852V54.229C256.342 57.8059 253.441 60.7051 249.863 60.7051Z" fill="#CACDDE"/>
<path fill-rule="evenodd" clip-rule="evenodd" d="M237.89 38.4309C237.631 38.6895 237.372 38.9482 237.113 39.2068C236.66 39.5948 236.273 40.0469 235.819 40.499C235.172 41.1457 234.461 41.4695 233.49 41.4695H233.167C231.226 41.3401 229.415 40.5642 228.121 39.9176C224.433 38.1071 221.198 35.5858 218.482 32.3538C216.282 29.7022 214.794 27.1809 213.758 24.5303C213.112 22.9785 212.853 21.7494 212.983 20.5214C213.047 19.8106 213.306 19.164 213.888 18.6467L216.088 16.4482C216.282 16.2537 216.605 15.9961 216.993 15.9961C217.381 15.9961 217.64 16.1896 217.899 16.4482C218.287 16.8362 218.675 17.2242 219.064 17.6121C219.258 17.8056 219.452 18.0642 219.711 18.2577L221.522 20.0692C221.716 20.2627 221.975 20.6507 221.975 20.9735C221.975 21.3614 221.716 21.6852 221.522 21.8787L220.94 22.4612C220.358 23.0426 219.84 23.5599 219.322 24.0772L219.258 24.1424C218.611 24.789 218.741 25.3704 218.87 25.7584V25.8225C219.322 26.9864 220.035 28.021 221.005 29.3142C222.816 31.5779 224.757 33.3232 226.892 34.6806C227.151 34.8751 227.474 35.0044 227.733 35.1327C227.991 35.263 228.186 35.3272 228.38 35.4565L228.445 35.5217C229.092 35.8445 229.739 35.7151 230.256 35.1979L232.52 32.9352C232.714 32.7407 233.038 32.4821 233.426 32.4821C233.749 32.4821 234.073 32.7407 234.267 32.9352L237.89 36.5552C238.473 37.1377 238.473 37.7843 237.89 38.4309ZM239.377 35.0685L235.755 31.4485C235.108 30.7368 234.267 30.3488 233.426 30.3488C232.584 30.3488 231.744 30.7368 231.097 31.3834L229.026 33.4525L228.638 33.258C228.38 33.1287 228.186 33.0646 227.991 32.9352C226.05 31.7062 224.304 30.0902 222.622 28.021C221.845 27.0516 221.263 26.1463 220.94 25.3704C221.457 24.9183 221.91 24.4 222.363 23.9479C222.557 23.7544 222.751 23.5599 222.946 23.3664C223.657 22.6547 224.045 21.8146 224.045 20.9735C224.045 20.1334 223.657 19.2933 222.946 18.5815L221.134 16.771C220.94 16.5775 220.746 16.3831 220.551 16.1254C220.164 15.7364 219.711 15.2843 219.322 14.8964C218.675 14.2498 217.835 13.8618 216.993 13.8618C216.153 13.8618 215.376 14.1846 214.665 14.8964L212.4 17.159C211.559 18.0001 211.042 19.0988 210.912 20.3269C210.783 22.2667 211.3 24.0772 211.753 25.2411C212.788 28.2155 214.405 30.8661 216.8 33.7112C219.711 37.1377 223.139 39.8534 227.151 41.7933C228.638 42.504 230.709 43.3441 232.974 43.5386H233.426C234.979 43.5386 236.273 42.9572 237.307 41.8574L237.372 41.7933C237.696 41.4053 238.083 41.0173 238.537 40.6294C238.796 40.3707 239.119 40.0469 239.377 39.7883C240.737 38.3667 240.737 36.4259 239.377 35.0685Z" fill="white"/>
<mask id="mask1" mask-type="alpha" maskUnits="userSpaceOnUse" x="384" y="284" width="88" height="118">
<path fill-rule="evenodd" clip-rule="evenodd" d="M384.875 284.249H471.911V401.325H384.875V284.249Z" fill="white"/>
</mask>
<g mask="url(#mask1)">
<path fill-rule="evenodd" clip-rule="evenodd" d="M462.328 289.138L425.668 284.249L425.954 287.896L394.61 292.076C394.61 292.076 374.406 342.848 392.212 454.507H417.709L426.886 341.284H430.145L439.033 454.507H464.53C482.336 342.848 462.328 289.138 462.328 289.138Z" fill="#8E716C"/>
</g>
<path d="M415.229 341.284H441.83" stroke="#282828" stroke-width="1.233" stroke-linecap="round" stroke-linejoin="round"/>
<path fill-rule="evenodd" clip-rule="evenodd" d="M483.737 235.578C480.601 230.564 462.983 230.74 462.053 230.632C457.29 230.072 465.107 268.035 475.015 301.219C476.914 307.581 483.903 310.894 490.006 308.302C490.073 308.275 490.138 308.246 490.204 308.218C495.033 306.169 497.78 301.035 496.809 295.874C492.096 270.834 487.364 241.377 483.737 235.578Z" fill="#FFB1A5"/>
<path fill-rule="evenodd" clip-rule="evenodd" d="M487.936 249.305L465.443 258.047L463.334 247.358L486.626 241.538L487.936 249.305Z" fill="#F3978E"/>
<path fill-rule="evenodd" clip-rule="evenodd" d="M492.185 270.691C492.185 270.691 481.529 285.026 482.037 284.367C482.544 283.707 490.393 261.201 490.393 261.201L492.185 270.691Z" fill="#F3978E"/>
<path fill-rule="evenodd" clip-rule="evenodd" d="M507.42 251.424L476.877 291.063C472.866 296.267 474.147 303.793 479.653 307.372C485.148 310.946 492.519 309.068 495.641 303.297L521.065 256.313L507.42 251.424Z" fill="#FFB1A5"/>
<path fill-rule="evenodd" clip-rule="evenodd" d="M515.326 261.603C508.704 259.46 505.071 252.348 507.21 245.716C509.349 239.082 516.451 235.443 523.072 237.585C529.694 239.728 533.328 246.841 531.188 253.474C529.049 260.107 521.947 263.746 515.326 261.603Z" fill="#FFB1A5"/>
<path fill-rule="evenodd" clip-rule="evenodd" d="M528.386 242.008C528.386 242.008 531.834 238.423 525.717 235.91C519.6 233.396 512.038 233.973 507.21 245.716L528.386 242.008Z" fill="#FFB1A5"/>
<path fill-rule="evenodd" clip-rule="evenodd" d="M534.722 216.958L547.512 222.512C548.223 222.82 548.482 223.665 548.09 224.398L531.267 255.877C530.874 256.61 529.979 256.955 529.268 256.645L516.479 251.092C515.767 250.782 515.508 249.937 515.9 249.205L532.725 217.726C533.116 216.993 534.011 216.649 534.722 216.958Z" fill="#372F5F"/>
<path fill-rule="evenodd" clip-rule="evenodd" d="M533.501 216.4L546.289 221.955C547.002 222.263 547.261 223.108 546.869 223.841L530.044 255.319C529.652 256.052 528.758 256.397 528.046 256.088L515.257 250.534C514.545 250.225 514.286 249.38 514.679 248.646L531.504 217.169C531.894 216.436 532.789 216.092 533.501 216.4Z" fill="#261B43"/>
<path fill-rule="evenodd" clip-rule="evenodd" d="M532.058 219.603L543.295 224.483L529.584 250.138L518.347 245.258L532.058 219.603Z" fill="#E6E6E6"/>
<path fill-rule="evenodd" clip-rule="evenodd" d="M543.295 224.483L518.347 245.257L532.059 219.603L543.295 224.483Z" fill="white"/>
<path fill-rule="evenodd" clip-rule="evenodd" d="M522.046 234.864C522.046 234.864 524.893 235.421 527.463 236.879C528.595 237.522 529.175 238.83 528.861 240.095C528.575 241.249 527.61 242.106 526.433 242.256L519.784 243.096C519.784 243.096 516.315 249.085 511.782 249.757L515.94 239.242L522.046 234.864Z" fill="#FFB1A5"/>
<path fill-rule="evenodd" clip-rule="evenodd" d="M437.134 185.661C436.4 185.657 484.283 192.297 492.184 246.981L467.337 250.794L462.328 292.075H393.012L379.25 215.802C379.25 215.802 394.608 193.757 423.122 185.661H437.134Z" fill="#A4E9FB"/>
<path d="M467.337 250.794L469.494 226.919" stroke="#282828" stroke-width="1.233" stroke-linecap="round" stroke-linejoin="round"/>
<path fill-rule="evenodd" clip-rule="evenodd" d="M441.684 167.449H419.462V186.666C418.326 187.006 416.431 187.692 413.493 189.091L430.825 199.432L448.543 189.091C448.543 189.091 445.73 187.452 441.684 186.443V167.449Z" fill="#FFB1A5"/>
<path fill-rule="evenodd" clip-rule="evenodd" d="M419.257 169.769C419.257 169.769 423.248 180.384 433.901 179.467C443.693 178.625 442.135 163.916 442.135 163.916L419.257 169.769Z" fill="#282828"/>
<path fill-rule="evenodd" clip-rule="evenodd" d="M409.565 155.653C406.081 158.817 398.293 146.814 401.659 143.444C405.025 140.075 407.592 145.361 407.592 145.361L409.094 148.945L410.227 153.797L410.497 155.067L409.565 155.653Z" fill="#F3978E"/>
<path d="M403.285 147.696C403.285 147.696 405.922 146.508 408.264 150.337" stroke="#282828" stroke-width="0.993" stroke-linecap="round" stroke-linejoin="round"/>
<path fill-rule="evenodd" clip-rule="evenodd" d="M450.756 155.289C453.96 158.737 462.734 147.437 459.664 143.793C456.595 140.151 453.591 145.202 453.591 145.202L451.791 148.644L450.252 153.383L449.876 154.627L450.756 155.289Z" fill="#F3978E"/>
<path d="M457.685 147.892C457.685 147.892 455.158 146.486 452.501 150.101" stroke="#282828" stroke-width="0.993" stroke-linecap="round" stroke-linejoin="round"/>
<path fill-rule="evenodd" clip-rule="evenodd" d="M403.456 131.994C403.456 147.883 415.55 155.418 430.469 155.418C445.387 155.418 457.481 147.883 457.481 131.994C457.481 116.106 445.387 105.296 430.469 105.296C415.55 105.296 403.456 116.106 403.456 131.994Z" fill="#282828"/>
<path fill-rule="evenodd" clip-rule="evenodd" d="M407.127 133.1C407.127 142.854 408.503 151.271 409.876 157.244C411.221 163.093 415.005 167.18 420.352 170.471L421.326 171.071C426.984 174.551 434.294 174.633 440.039 171.278C445.832 167.895 449.889 163.434 451.137 157.158C453.408 145.743 453.656 133.1 453.656 133.1C453.656 133.1 455.816 108.476 430.724 108.955C405.63 109.434 407.127 133.1 407.127 133.1Z" fill="#FFB1A5"/>
<path d="M428.869 147.152V150.559C428.869 150.76 428.907 150.954 428.979 151.132C429.258 151.828 430.06 152.162 430.785 151.969L432.345 151.554" stroke="#282828" stroke-width="1.232" stroke-linecap="round" stroke-linejoin="round"/>
<path fill-rule="evenodd" clip-rule="evenodd" d="M424.88 133.939L412.409 136.866C412.409 136.866 412.975 133.687 418.077 132.533C423.179 131.377 424.88 133.939 424.88 133.939Z" fill="#282828"/>
<path fill-rule="evenodd" clip-rule="evenodd" d="M435.948 133.939L447.989 136.866C447.989 136.866 447.441 133.687 442.515 132.533C437.59 131.377 435.948 133.939 435.948 133.939Z" fill="#282828"/>
<path fill-rule="evenodd" clip-rule="evenodd" d="M422.244 143.115C422.244 144.275 421.303 145.215 420.141 145.215C418.98 145.215 418.039 144.275 418.039 143.115C418.039 141.955 418.98 141.014 420.141 141.014C421.303 141.014 422.244 141.955 422.244 143.115Z" fill="#282828"/>
<path fill-rule="evenodd" clip-rule="evenodd" d="M442.183 143.115C442.183 144.275 441.242 145.215 440.08 145.215C438.918 145.215 437.977 144.275 437.977 143.115C437.977 141.955 438.918 141.014 440.08 141.014C441.242 141.014 442.183 141.955 442.183 143.115Z" fill="#282828"/>
<path fill-rule="evenodd" clip-rule="evenodd" d="M422.244 155.935H438.462C438.462 155.935 431.274 164.694 422.244 155.935Z" fill="white"/>
<path fill-rule="evenodd" clip-rule="evenodd" d="M428.2 143.931C428.2 148.879 424.196 152.889 419.257 152.889C414.318 152.889 410.312 148.879 410.312 143.931C410.312 138.984 414.318 134.973 419.257 134.973C424.196 134.973 428.2 138.984 428.2 143.931Z" stroke="#C98BD2" stroke-width="1.342"/>
<path fill-rule="evenodd" clip-rule="evenodd" d="M450.17 143.931C450.17 148.879 446.167 152.889 441.228 152.889C436.289 152.889 432.283 148.879 432.283 143.931C432.283 138.984 436.289 134.973 441.228 134.973C446.167 134.973 450.17 138.984 450.17 143.931Z" stroke="#C98BD2" stroke-width="1.342"/>
<path d="M428.2 143.931C428.2 143.931 430.318 141.95 432.283 143.931" stroke="#C98BD2" stroke-width="1.342"/>
<path d="M410.313 143.931L407.496 143.86" stroke="#C98BD2" stroke-width="1.342"/>
<path d="M450.17 143.931L453.005 143.86" stroke="#C98BD2" stroke-width="1.342"/>
<path fill-rule="evenodd" clip-rule="evenodd" d="M453.333 141.263C453.333 141.263 443.301 127.678 445.615 113.915C445.615 113.915 453.061 117.668 455.001 127.356C456.941 137.045 453.333 141.263 453.333 141.263Z" fill="#282828"/>
<path fill-rule="evenodd" clip-rule="evenodd" d="M407.111 142.183C407.111 142.183 418.765 126.754 416.451 112.991C416.451 112.991 408.367 117.668 406.428 127.356C404.489 137.045 407.111 142.183 407.111 142.183Z" fill="#282828"/>
<path fill-rule="evenodd" clip-rule="evenodd" d="M452.492 119.335C452.492 119.335 439.611 133.461 404.364 131.043C404.364 131.043 409.762 110.315 426.842 108.107C426.842 108.107 446.566 105.747 452.492 119.335Z" fill="#282828"/>
<path fill-rule="evenodd" clip-rule="evenodd" d="M468.416 102.822C468.416 112.131 460.882 119.678 451.587 119.678C442.293 119.678 434.759 112.131 434.759 102.822C434.759 93.5122 442.293 85.9662 451.587 85.9662C460.882 85.9662 468.416 93.5122 468.416 102.822Z" fill="#282828"/>
<mask id="mask2" mask-type="alpha" maskUnits="userSpaceOnUse" x="168" y="281" width="88" height="121">
<path fill-rule="evenodd" clip-rule="evenodd" d="M168.856 281.273H255.891V401.325H168.856V281.273Z" fill="white"/>
</mask>
<g mask="url(#mask2)">
<path fill-rule="evenodd" clip-rule="evenodd" d="M246.156 289.1L214.813 284.92L215.099 281.273L178.439 286.162C178.439 286.162 158.43 339.871 176.237 451.532H201.733L210.622 338.309H213.881L223.056 451.532H248.553C266.36 339.871 246.156 289.1 246.156 289.1Z" fill="#282828"/>
</g>
<path fill-rule="evenodd" clip-rule="evenodd" d="M243.656 136.346C239.414 131.348 236.017 125.516 233.131 117.332C230.031 108.548 219.885 112.118 219.885 112.118C219.885 112.118 211.429 101.222 198.705 105.018C185.981 108.812 181.56 117.882 181.301 128.665C181.041 139.447 172.574 141.133 166.054 153.607C154.543 175.627 173.923 194.176 209.199 189.03L209.247 188.687C212.721 189.744 216.978 190.205 222.175 189.896C264.555 187.376 260.465 156.153 243.656 136.346Z" fill="#282828"/>
<path fill-rule="evenodd" clip-rule="evenodd" d="M229.782 152.676C233.265 155.841 241.053 143.838 237.688 140.468C234.322 137.099 231.754 142.385 231.754 142.385L230.252 145.969L229.119 150.82L228.849 152.091L229.782 152.676Z" fill="#F3978E"/>
<path d="M236.062 144.72C236.062 144.72 233.425 143.532 231.082 147.361" stroke="#282828" stroke-width="0.993" stroke-linecap="round" stroke-linejoin="round"/>
<path fill-rule="evenodd" clip-rule="evenodd" d="M188.591 152.312C185.387 155.761 176.613 144.461 179.682 140.818C182.751 137.175 185.755 142.225 185.755 142.225L187.555 145.668L189.094 150.407L189.469 151.651L188.591 152.312Z" fill="#F3978E"/>
<path d="M181.662 144.916C181.662 144.916 184.189 143.509 186.846 147.126" stroke="#282828" stroke-width="0.993" stroke-linecap="round" stroke-linejoin="round"/>
<path fill-rule="evenodd" clip-rule="evenodd" d="M235.891 129.018C235.891 144.907 223.796 152.441 208.878 152.441C193.959 152.441 181.865 144.907 181.865 129.018C181.865 113.129 193.959 102.32 208.878 102.32C223.796 102.32 235.891 113.129 235.891 129.018Z" fill="#282828"/>
<mask id="mask3" mask-type="alpha" maskUnits="userSpaceOnUse" x="117" y="66" width="463" height="336">
<path fill-rule="evenodd" clip-rule="evenodd" d="M117.853 401.325H579.118V66.6489H117.853V401.325Z" fill="white"/>
</mask>
<g mask="url(#mask3)">
<path fill-rule="evenodd" clip-rule="evenodd" d="M197.663 193.296H219.885V164.473H197.663V193.296Z" fill="#FFB1A5"/>
<path fill-rule="evenodd" clip-rule="evenodd" d="M194.419 162.675C194.419 162.675 200.605 175.041 208.215 176.972C210.248 177.488 212.419 177.311 214.38 176.614C217.244 175.597 220.876 171.32 221.493 166.588L221.78 163.884C221.78 163.884 208.238 171.269 194.419 162.675Z" fill="#282828"/>
<path fill-rule="evenodd" clip-rule="evenodd" d="M232.219 130.124C232.219 139.878 230.843 148.295 229.47 154.269C228.125 160.117 224.341 164.205 218.994 167.494L218.02 168.094C212.362 171.576 205.052 171.656 199.307 168.302C193.514 164.918 189.457 160.457 188.209 154.182C185.938 142.766 185.69 130.124 185.69 130.124C185.69 130.124 183.53 105.5 208.623 105.979C233.716 106.457 232.219 130.124 232.219 130.124Z" fill="#FFB1A5"/>
<path d="M207.202 145.509V147.533C207.202 147.735 207.241 147.928 207.311 148.105C207.59 148.799 208.393 149.131 209.119 148.939L210.679 148.526" stroke="#282828" stroke-width="1.23" stroke-linecap="round" stroke-linejoin="round"/>
<path fill-rule="evenodd" clip-rule="evenodd" d="M212.43 132.162L225.78 135.327C225.78 135.327 225.173 131.89 219.712 130.641C214.25 129.392 212.43 132.162 212.43 132.162Z" fill="#282828"/>
<path fill-rule="evenodd" clip-rule="evenodd" d="M205.421 132.162L191.899 135.327C191.899 135.327 192.513 131.89 198.045 130.641C203.577 129.392 205.421 132.162 205.421 132.162Z" fill="#282828"/>
<path fill-rule="evenodd" clip-rule="evenodd" d="M200.577 140.462C200.577 141.619 199.636 142.556 198.474 142.556C197.312 142.556 196.371 141.619 196.371 140.462C196.371 139.305 197.312 138.367 198.474 138.367C199.636 138.367 200.577 139.305 200.577 140.462Z" fill="#282828"/>
<path fill-rule="evenodd" clip-rule="evenodd" d="M220.515 140.462C220.515 141.619 219.574 142.556 218.412 142.556C217.251 142.556 216.309 141.619 216.309 140.462C216.309 139.305 217.251 138.367 218.412 138.367C219.574 138.367 220.515 139.305 220.515 140.462Z" fill="#282828"/>
<path fill-rule="evenodd" clip-rule="evenodd" d="M199.188 152.441H217.647C217.647 152.441 216.344 157.521 207.974 157.521C201.599 157.521 199.188 152.441 199.188 152.441Z" fill="white"/>
<path fill-rule="evenodd" clip-rule="evenodd" d="M186.013 138.287C186.013 138.287 196.045 124.701 193.731 110.938C193.731 110.938 186.285 114.693 184.345 124.38C182.406 134.068 186.013 138.287 186.013 138.287Z" fill="#282828"/>
<path fill-rule="evenodd" clip-rule="evenodd" d="M222.896 110.015C222.896 110.015 230.98 114.693 232.919 124.38C234.857 134.068 232.236 137.835 232.236 137.835C232.236 137.835 220.582 123.778 222.896 110.015Z" fill="#282828"/>
<path fill-rule="evenodd" clip-rule="evenodd" d="M186.854 116.359C186.854 116.359 198.366 131.857 233.611 129.44C233.611 129.44 229.585 107.338 212.504 105.13C212.504 105.13 192.782 102.772 186.854 116.359Z" fill="#282828"/>
<path fill-rule="evenodd" clip-rule="evenodd" d="M154.726 357.274C154.213 358.082 184.06 227.195 175.199 229.174C174.392 229.354 158.871 230.797 156.565 235.495C149.878 249.112 145.082 356.281 145.082 356.281L154.726 357.274Z" fill="#FFB1A5"/>
<path fill-rule="evenodd" clip-rule="evenodd" d="M145.082 356.281C145.082 356.281 140.271 378.64 158.458 381.084C159.656 381.245 160.814 380.535 161.209 379.392L161.261 379.24C161.696 377.976 161.064 376.622 159.846 376.077C156.881 374.748 152.281 371.393 154.563 363.774C154.563 363.774 157.193 363.451 158.643 368.363C159.016 369.626 160.433 370.26 161.608 369.669C162.409 369.263 162.861 368.4 162.748 367.507C162.312 364.066 160.584 355.786 153.955 353.564L145.082 356.281Z" fill="#FFB1A5"/>
<path fill-rule="evenodd" clip-rule="evenodd" d="M151.202 266.944C151.202 266.944 168.399 291.203 168.49 290.733C168.58 290.265 174.504 256.675 174.504 256.675L153.636 247.621L151.202 266.944Z" fill="#F3978E"/>
<path fill-rule="evenodd" clip-rule="evenodd" d="M198.985 188.55C199.718 188.546 156.484 189.322 148.582 244.004L173.429 247.817L178.439 289.1H247.755L261.515 212.826C261.515 212.826 251.733 196.3 223.218 188.205L198.985 188.55Z" fill="#3490E5"/>
<path fill-rule="evenodd" clip-rule="evenodd" d="M177.853 195.161C177.853 195.161 183.962 203.285 208.998 203.285C233.801 203.285 240.143 194.735 240.143 194.735C240.143 194.735 225.522 186.553 208.556 183.906C208.556 183.906 193.405 186.609 177.853 195.161Z" fill="#FFB1A5"/>
<path fill-rule="evenodd" clip-rule="evenodd" d="M262.918 368.395L262.978 477.449H316.839L320.979 368.395H262.918Z" fill="#005683"/>
<path fill-rule="evenodd" clip-rule="evenodd" d="M379.865 368.395L379.806 477.449H325.944L321.805 368.395H379.865Z" fill="#005683"/>
<path fill-rule="evenodd" clip-rule="evenodd" d="M294.758 406.281H350.448V368.395H294.758V406.281Z" fill="#005683"/>
<path fill-rule="evenodd" clip-rule="evenodd" d="M413.892 273.224C417.231 310.178 413.708 337.103 414.682 405.101L382.535 406.45L377.746 279.169L413.892 273.224Z" fill="#FFB1A5"/>
<path fill-rule="evenodd" clip-rule="evenodd" d="M381.711 302.061C381.711 302.061 401.618 300.236 415.229 291.242L414.87 283.328L381.699 287.854L381.711 302.061Z" fill="#F3978E"/>
<path fill-rule="evenodd" clip-rule="evenodd" d="M349.773 188.143C349.773 188.143 413.006 204.071 424.463 284.464C424.463 284.464 393.515 297.903 362.501 292.122L369.478 265.234L349.773 188.143Z" fill="#204DD4"/>
<path fill-rule="evenodd" clip-rule="evenodd" d="M160.897 221.571L207.978 277.263L193.571 317.904C193.571 317.904 157.786 268.071 141.707 229.552L160.897 221.571Z" fill="#FFB1A5"/>
<path fill-rule="evenodd" clip-rule="evenodd" d="M162.445 223.581C162.445 223.581 145.912 232.937 141.707 229.552C134.358 223.638 128.285 201.989 128.285 201.989C128.285 201.989 159.202 190.315 158.91 190.771C158.62 191.227 162.445 223.581 162.445 223.581Z" fill="#FFB1A5"/>
<path fill-rule="evenodd" clip-rule="evenodd" d="M162.444 223.581C162.151 221.914 168.575 203.929 170.776 197.185C171.308 195.558 170.188 193.774 168.425 193.436C167.277 193.216 165.46 193.358 164.601 195.007L156.846 208.282L162.444 223.581Z" fill="#FFB1A5"/>
<path fill-rule="evenodd" clip-rule="evenodd" d="M161.878 204.139L156.554 177.608C156.238 175.842 154.467 174.626 152.7 174.96C151.17 175.25 150.162 176.615 150.343 178.15L152.663 197.905L161.878 204.139Z" fill="#FFB1A5"/>
<path fill-rule="evenodd" clip-rule="evenodd" d="M151.291 194.353L144.06 175.407C143.463 173.748 141.599 172.829 139.953 173.381C138.526 173.86 137.725 175.3 138.063 176.779L143.428 198.671L151.291 194.353Z" fill="#FFB1A5"/>
<path fill-rule="evenodd" clip-rule="evenodd" d="M143.521 199.939L134.373 181.323C133.533 179.596 131.445 178.793 129.73 179.54C128.12 180.241 127.407 182.069 128.096 183.731L135.388 201.306L143.521 199.939Z" fill="#FFB1A5"/>
<path fill-rule="evenodd" clip-rule="evenodd" d="M128.285 201.989L121.107 190.585C120.513 189.243 121.062 187.739 122.363 187.144C123.607 186.574 125.144 187.023 125.949 188.189L135.388 201.306L128.285 201.989Z" fill="#FFB1A5"/>
<path d="M160.431 202.146C160.431 202.146 149.651 201.013 148.544 215.402" stroke="#282828" stroke-width="1.532" stroke-linecap="round" stroke-linejoin="round"/>
<path fill-rule="evenodd" clip-rule="evenodd" d="M184.022 298.895C184.022 298.895 192.877 329.592 210.523 325.511C228.169 321.43 255.67 283.68 255.67 283.68L249.515 219.222L199.988 280.279L184.022 298.895Z" fill="#FFB1A5"/>
<path fill-rule="evenodd" clip-rule="evenodd" d="M215.35 261.313C215.35 261.313 232.071 286.576 246.336 295.485L255.671 283.68L219.655 255.772L215.35 261.313Z" fill="#F3978E"/>
<path fill-rule="evenodd" clip-rule="evenodd" d="M288.508 186.749C288.508 186.749 239.416 197.833 213.255 254.981C213.255 254.981 229.061 278.837 254.402 289.441L271.367 268.623L288.508 186.749Z" fill="#204DD4"/>
<path fill-rule="evenodd" clip-rule="evenodd" d="M288.508 186.573C269.331 196.426 257.275 209.492 257.275 209.492L261.058 376.546H381.908L381.516 210.354C381.516 210.354 366.283 195.423 349.772 188.143C335.751 181.961 302.141 179.569 288.508 186.573Z" fill="#204DD4"/>
<path fill-rule="evenodd" clip-rule="evenodd" d="M345.692 267.974V267.974C336.409 267.974 328.883 260.436 328.883 251.138V234.301H362.501V251.138C362.501 260.436 354.975 267.974 345.692 267.974Z" stroke="white" stroke-width="1.397" stroke-linecap="round" stroke-linejoin="round"/>
<path d="M381.71 292.744L383.278 238.095" stroke="#282828" stroke-width="1.397" stroke-linecap="round" stroke-linejoin="round"/>
<path d="M259.132 283.636L256.521 236.265" stroke="#282828" stroke-width="1.397" stroke-linecap="round" stroke-linejoin="round"/>
<path fill-rule="evenodd" clip-rule="evenodd" d="M289.923 125.556L284.885 100.593C284.602 98.5598 283.815 95.4221 284.779 92.4736C286.375 87.5955 292.239 78.2278 302.263 82.5163L304.429 92.4001C304.429 92.4001 294.02 94.5047 289.845 108.144L289.923 125.556Z" fill="#282828"/>
<path fill-rule="evenodd" clip-rule="evenodd" d="M301.524 87.6694C301.342 90.9499 298.451 105.301 288.29 110.529C288.29 110.529 279.389 91.4107 301.524 87.6694Z" fill="#282828"/>
<path fill-rule="evenodd" clip-rule="evenodd" d="M337.172 181.976V139.588H298.159V181.976L286.546 187.278C286.546 187.278 289.27 204.847 318.074 205.237C346.88 205.627 349.773 188.144 349.773 188.144L337.172 181.976Z" fill="#FFB1A5"/>
<path fill-rule="evenodd" clip-rule="evenodd" d="M302.263 82.5166C302.263 82.5166 309.423 63.598 331.501 73.6559C344.864 79.7431 348.607 87.9047 350.199 93.6881C350.728 95.6095 350.939 98.6356 350.795 100.433L345.454 125.557L324.605 90.7969L304.429 92.4004L302.263 82.5166Z" fill="#282828"/>
<path fill-rule="evenodd" clip-rule="evenodd" d="M345.455 125.557C345.455 125.557 348.085 121.366 353.51 123.427C358.935 125.488 356.481 138.684 348.343 140.366C348.343 140.366 345.427 141.002 343.139 139.003C343.139 139.003 345.14 129.256 345.455 125.557Z" fill="#F3978E"/>
<path d="M352.434 128.082C352.434 128.082 347.89 126.563 344.664 133.266" stroke="#282828" stroke-width="1.397" stroke-linecap="round" stroke-linejoin="round"/>
<path fill-rule="evenodd" clip-rule="evenodd" d="M289.923 125.557C289.923 125.557 287.293 121.366 281.869 123.427C276.444 125.488 278.898 138.684 287.035 140.366C287.035 140.366 289.952 141.002 292.239 139.003C292.239 139.003 290.238 129.256 289.923 125.557Z" fill="#F3978E"/>
<path d="M282.945 128.082C282.945 128.082 287.488 126.563 290.714 133.266" stroke="#282828" stroke-width="1.397" stroke-linecap="round" stroke-linejoin="round"/>
<path fill-rule="evenodd" clip-rule="evenodd" d="M345.998 113.034C346.001 120.99 345.222 137.633 340.338 147.51C335.755 156.786 328.172 161.777 318.232 162.075C308.291 162.372 300.886 158.534 294.951 146.497C289.017 134.46 289.3 113.182 289.3 113.182C289.3 113.182 289.3 84.763 317.341 84.763C346.875 84.763 345.998 113.034 345.998 113.034Z" fill="#FFB1A5"/>
<path fill-rule="evenodd" clip-rule="evenodd" d="M298.452 152.43C298.452 152.43 301.719 169.034 316.146 170.942C332.749 173.137 337.172 152.851 337.172 152.851C337.172 152.851 329.834 162.06 318.231 162.074C305.291 162.091 298.452 152.43 298.452 152.43Z" fill="#282828"/>
<path d="M315.649 124.832V131.41C315.649 131.692 315.703 131.962 315.803 132.21C316.191 133.185 317.311 133.652 318.323 133.382L320.5 132.802" stroke="#282828" stroke-width="1.397" stroke-linecap="round" stroke-linejoin="round"/>
<path fill-rule="evenodd" clip-rule="evenodd" d="M307.368 121.692C307.368 123.103 306.225 124.249 304.815 124.249C303.406 124.249 302.263 123.103 302.263 121.692C302.263 120.279 303.406 119.134 304.815 119.134C306.225 119.134 307.368 120.279 307.368 121.692Z" fill="#282828"/>
<path fill-rule="evenodd" clip-rule="evenodd" d="M331.301 121.692C331.301 123.103 330.157 124.249 328.748 124.249C327.339 124.249 326.195 123.103 326.195 121.692C326.195 120.279 327.339 119.134 328.748 119.134C330.157 119.134 331.301 120.279 331.301 121.692Z" fill="#282828"/>
<path fill-rule="evenodd" clip-rule="evenodd" d="M322.214 108.971L339.377 113.412C339.377 113.412 338.597 108.59 331.576 106.837C324.554 105.086 322.214 108.971 322.214 108.971Z" fill="#282828"/>
<path fill-rule="evenodd" clip-rule="evenodd" d="M311.549 108.971L294.386 113.412C294.386 113.412 295.167 108.59 302.188 106.837C309.209 105.086 311.549 108.971 311.549 108.971Z" fill="#282828"/>
<path d="M308.136 138.036C308.136 138.036 310.668 139.98 317.325 139.98C323.381 139.98 327.162 138.036 327.162 138.036" stroke="#282828" stroke-width="1.397" stroke-linecap="round" stroke-linejoin="round"/>
<path fill-rule="evenodd" clip-rule="evenodd" d="M314.975 122.438C314.975 128.439 310.119 133.303 304.128 133.303C298.137 133.303 293.28 128.439 293.28 122.438C293.28 116.438 298.137 111.574 304.128 111.574C310.119 111.574 314.975 116.438 314.975 122.438Z" stroke="white" stroke-width="1.951"/>
<path fill-rule="evenodd" clip-rule="evenodd" d="M341.622 122.438C341.622 128.439 336.766 133.303 330.776 133.303C324.785 133.303 319.928 128.439 319.928 122.438C319.928 116.438 324.785 111.574 330.776 111.574C336.766 111.574 341.622 116.438 341.622 122.438Z" stroke="white" stroke-width="1.951"/>
<path d="M314.975 122.438C314.975 122.438 317.544 120.037 319.928 122.438" stroke="white" stroke-width="1.951"/>
<path d="M293.281 122.438L289.644 122.346" stroke="white" stroke-width="1.951"/>
<path d="M341.623 122.438L345.683 122.373" stroke="white" stroke-width="1.951"/>
<path fill-rule="evenodd" clip-rule="evenodd" d="M298.452 88.3182C298.452 88.3182 303.661 103.141 327.167 102.687C343.139 102.378 346.955 113.955 346.955 113.955C346.955 113.955 344.175 88.0738 343.445 88.3182C342.714 88.5627 319.141 82.0177 319.141 82.0177L298.452 88.3182Z" fill="#282828"/>
</g>
</svg>
